<svg width="24" height="24" viewBox="0 0 24 24" fill="none" xmlns="http://www.w3.org/2000/svg">
<path d="M5.99995 13.8692C4.98591 13.6514 4.09609 13.0483 3.5182 12.1871C2.9403 11.3258 2.71952 10.2738 2.90243 9.25291C3.08533 8.23201 3.65763 7.32206 4.49858 6.71502C5.33953 6.10799 6.38339 5.85132 7.40995 5.99917C7.66258 5.42581 8.0185 4.90379 8.45995 4.45917C8.92441 3.99354 9.47616 3.62411 10.0836 3.37205C10.6911 3.11998 11.3423 2.99023 12 2.99023C12.6576 2.99023 13.3088 3.11998 13.9163 3.37205C14.5237 3.62411 15.0755 3.99354 15.54 4.45917C15.9814 4.90379 16.3373 5.42581 16.59 5.99917C17.6165 5.85132 18.6604 6.10799 19.5013 6.71502C20.3423 7.32206 20.9146 8.23201 21.0975 9.25291C21.2804 10.2738 21.0596 11.3258 20.4817 12.1871C19.9038 13.0483 19.014 13.6514 18 13.8692V20.9992H5.99995V13.8692Z" stroke="black" stroke-width="2" stroke-linecap="round" stroke-linejoin="round"/>
<path d="M6 17H18" stroke="black" stroke-width="2" stroke-linecap="round" stroke-linejoin="round"/>
</svg>
