<svg width="24" height="24" viewBox="0 0 24 24" fill="none" xmlns="http://www.w3.org/2000/svg">
<path d="M4.60004 13.1106L10.39 9.90057C12.28 8.85057 15.18 11.6806 14.1 13.6106L10.88 19.4206C8.80004 23.1606 0.790037 15.2306 4.60004 13.1106Z" stroke="black" stroke-width="2" stroke-linecap="round" stroke-linejoin="round"/>
<path d="M10.5 9.5L9.5 7.21C9.2 6.48 8.8 6 8 6H4.5C2.79 6 2 6.5 2 8.5C2.08384 10.2938 2.7912 12.002 4 13.33" stroke="black" stroke-width="2" stroke-linecap="round" stroke-linejoin="round"/>
<path d="M8 6C8 4.45 8.24 2 6 2C4 2 3.5 4.17 3.5 6" stroke="black" stroke-width="2" stroke-linecap="round" stroke-linejoin="round"/>
<path d="M14.5 13.5L16.79 14.5C17.52 14.8 18 15.2 18 16V19.5C18 21.21 17.5 22 15.5 22C13.7063 21.9162 11.998 21.2088 10.67 20" stroke="black" stroke-width="2" stroke-linecap="round" stroke-linejoin="round"/>
<path d="M18 15.9997C19.55 15.9997 22 15.7597 22 17.9997C22 19.9997 19.83 20.4997 18 20.4997" stroke="black" stroke-width="2" stroke-linecap="round" stroke-linejoin="round"/>
</svg>
