<svg width="24" height="24" viewBox="0 0 24 24" fill="none" xmlns="http://www.w3.org/2000/svg">
<path d="M20.42 4.58045C19.9183 4.07702 19.3222 3.67758 18.6658 3.40503C18.0094 3.13248 17.3057 2.99219 16.595 2.99219C15.8842 2.99219 15.1805 3.13248 14.5241 3.40503C13.8678 3.67758 13.2716 4.07702 12.77 4.58045L12 5.36045L11.23 4.58045C10.7283 4.07702 10.1322 3.67758 9.47578 3.40503C8.81941 3.13248 8.11568 2.99219 7.40496 2.99219C6.69425 2.99219 5.99052 3.13248 5.33414 3.40503C4.67776 3.67758 4.08164 4.07702 3.57996 4.58045C1.45996 6.70045 1.32996 10.2804 3.99996 13.0004L12 21.0004L20 13.0004C22.67 10.2804 22.54 6.70045 20.42 4.58045Z" stroke="black" stroke-width="2" stroke-linecap="round" stroke-linejoin="round"/>
<path d="M11.9999 5.35938L8.86995 8.49937C8.47424 8.89832 8.2522 9.43746 8.2522 9.99937C8.2522 10.5613 8.47424 11.1004 8.86995 11.4994C9.26889 11.8951 9.80804 12.1171 10.3699 12.1171C10.9319 12.1171 11.471 11.8951 11.8699 11.4994L14.1299 9.28937C14.6916 8.73366 15.4498 8.42196 16.2399 8.42196C17.0301 8.42196 17.7883 8.73366 18.3499 9.28937L20.7499 11.6894" stroke="black" stroke-width="2" stroke-linecap="round" stroke-linejoin="round"/>
<path d="M18 15L16 13" stroke="black" stroke-width="2" stroke-linecap="round" stroke-linejoin="round"/>
<path d="M15 18L13 16" stroke="black" stroke-width="2" stroke-linecap="round" stroke-linejoin="round"/>
</svg>
