<svg xmlns="http://www.w3.org/2000/svg" xmlns:xlink="http://www.w3.org/1999/xlink" viewBox="0 0 667 1255"><defs><style>.cls-1{fill:#b3ffce;}.cls-2{opacity:0.2;}.cls-3{fill:#00f15d;}.cls-4,.cls-6{fill:none;stroke:#00f15d;stroke-linecap:round;stroke-width:2px;stroke-dasharray:7 7;}.cls-10,.cls-4,.cls-6{stroke-miterlimit:10;}.cls-4,.cls-5{opacity:0.7;}.cls-7{clip-path:url(#clip-path);}.cls-8{fill:#870094;}.cls-11,.cls-14,.cls-9{fill:#fff;}.cls-10{stroke:#221f20;stroke-width:3px;}.cls-11{font-size:39.57px;}.cls-11,.cls-14{font-family:JosefinSans-Bold, Josefin Sans;font-weight:700;}.cls-12{letter-spacing:-0.08em;}.cls-13{letter-spacing:-0.01em;}.cls-14{font-size:19.05px;}.cls-15{letter-spacing:-0.02em;}.cls-16{letter-spacing:-0.06em;}</style><clipPath id="clip-path"><circle class="cls-1" cx="319.83" cy="490.73" r="102.24"/></clipPath></defs><title>Mujeres</title><g id="Layer_2" data-name="Layer 2"><rect x="-4.16" y="2.12" width="671.38" height="1255.03"/></g><g id="Layer_1" data-name="Layer 1"><g id="_7I5Yon" data-name="7I5Yon" class="cls-2"><path class="cls-3" d="M55.84,568.77V554.84a26.1,26.1,0,0,0-.2-3.3C54,539,41.22,530.16,28.8,533a22.42,22.42,0,0,0-17.4,21.73q0,7,0,14Z"/><path class="cls-3" d="M33.65,500.55a14.17,14.17,0,0,1,14.21,14.3,14.23,14.23,0,1,1-28.45-.16A14.15,14.15,0,0,1,33.65,500.55Z"/></g><g id="_7I5Yon-2" data-name="7I5Yon" class="cls-2"><path class="cls-3" d="M198.87,864.45v-12.9a24.06,24.06,0,0,0-.19-3.06c-1.51-11.66-13.36-19.81-24.86-17.17a20.76,20.76,0,0,0-16.12,20.13q0,6.49,0,13Z"/><path class="cls-3" d="M178.31,801.25a13.12,13.12,0,0,1,13.16,13.24,13.18,13.18,0,1,1-26.35-.14A13.11,13.11,0,0,1,178.31,801.25Z"/></g><g id="_7I5Yon-3" data-name="7I5Yon" class="cls-2"><path class="cls-3" d="M493.83,838.09v-12.9a24.17,24.17,0,0,0-.19-3.06c-1.51-11.65-13.36-19.81-24.86-17.17a20.77,20.77,0,0,0-16.12,20.13q0,6.51,0,13Z"/><path class="cls-3" d="M473.27,774.89A13.18,13.18,0,1,1,460.08,788,13.13,13.13,0,0,1,473.27,774.89Z"/></g><path class="cls-4" d="M81.57,687.61c-12.54.74-25.52,0-38.07-4.29S18.78,670.7,10.85,658.83c-10-15-12.18-34.15-9-50.65,2.5-13,8-24.72,14.36-35.69"/><g class="cls-5"><path class="cls-6" d="M83.91,520.83c15.85-53.53,42.35-110.14,98-123.25,19.65-4.63,39.36-2.69,58,3.93"/><path class="cls-6" d="M198.36,708.11c9.38,27.46,20,54.8,36,79.29s38,46.17,65.4,58.37c50.76,22.56,123.36,14.37,156.32-36"/><path class="cls-6" d="M499.37,807c49.72-18.62,109.21-43.62,133.13-98.29C661,643.68,616,551.61,563.06,532.47"/><path class="cls-6" d="M126,703.19c-13.61,22.26-24.61,48.11-29.6,71.6s-3.65,44.27,4.57,54.34c4.18,5.11,10,7.45,16.23,8.43,10.63,1.65,22.83-.52,35.82-6.39"/><path class="cls-6" d="M270,688.25c-6.66-19.16-22.95-41.48-40.26-35-31.38,11.83-46.22,90.86-49.3,140.26"/><path class="cls-6" d="M255.56,632c-4.51-19-10.59-37.92-21.26-54.28s-26.41-30.05-45.27-35.1c-19.13-5.11-39.58-1-58.17,5.82a205.28,205.28,0,0,0-41.19,20.63"/><path class="cls-6" d="M520.8,486.27c-5-19.53-14.57-47.68-28.19-62.42-17.32-18.76-43.4-16.32-66.93,9.66"/></g><g class="cls-2"><circle class="cls-3" cx="319.83" cy="490.73" r="103.24"/><path class="cls-3" d="M319.83,388.49A102.24,102.24,0,1,1,217.59,490.73,102.25,102.25,0,0,1,319.83,388.49m0-2A104.24,104.24,0,1,0,424.07,490.73,104.36,104.36,0,0,0,319.83,386.49Z"/><circle class="cls-1" cx="319.83" cy="490.73" r="102.24"/><g class="cls-7"><path class="cls-3" d="M386.2,391.48c1-.72,2.34.23,3.2,1.13q7.78,8.14,15.29,16.56c5.76,6.46,11.48,13.18,14.74,21.2,2.76,6.77,3.62,14.16,4,21.46.32,6.1-.38,10.9-3.06,16.37-2.33,4.76-5.19,6.65-9.73,9.56-.77,2.87-1.53,7-5.5,7-3.65,0-4.86-5.43-5.8-8.91-.57-2.12-.74-4.33-1.42-6.41a16.84,16.84,0,0,0-7.48-8.86c-2.72-1.65-6.29-3.48-6.1-6.66.08-1.51,1.08-2.8,1.82-4.12s1.21-3.06.33-4.29c-1.38-1.91-4.3-.87-6.59-.36-3.79.85-7.78-.38-11.13-2.34s-6.22-4.62-9.33-6.95a10.59,10.59,0,0,0-4.69-2.33c-5.64-.77-9.5,6.55-15.18,6.95-2.89.2-5.7-1.47-8.57-1.07-1.43.2-2.78.9-4.22.9-2.8,0-4.82-2.6-6.35-4.95a2.38,2.38,0,0,1-.54-1.7,2.21,2.21,0,0,1,.94-1.2A21.67,21.67,0,0,1,332.4,428c1.92-.14,4-.08,5.57-1.2,2.92-2.11,2.28-7,5-9.36,1.1-.94,2.65-1.37,3.48-2.56,1.06-1.54.45-3.61.39-5.49a9,9,0,0,1,7.35-8.88c2-.32,4.06,0,5.91-.69,2.5-1,4-3.68,6.59-4.49m-88.84-18c-1.25,1.76-1.56,4-1.84,6.14-.63,4.77-1.25,9.58-.79,14.36.39,4,1.52,8,1,12.08-.31,2.45-1.81,6.69,2,7.27,2.49.37,6.48-3.55,8.93-4.5,2.92-1.12,6.07-1.76,8.5-3.87,2-1.7,3.39-4.27,5.9-4.94,3.7-1,8.13,2.66,11.17.31,2.57-2,1.27-6.12,2.33-9.19a11.75,11.75,0,0,1,2.4-3.68l10.23-12.08M208.64,426.32c-2.4,5.11-4.82,10.3-5.66,15.88a57.88,57.88,0,0,0,0,13.09,76.16,76.16,0,0,0,2,14.52c1.3,4.76,3.92,9.64,8.51,11.48,1.95.79,4.1.95,6.14,1.49A17,17,0,0,1,231.14,492q3.84,8.14,7.17,16.51a16.74,16.74,0,0,1,1.34,4.67c.23,2.5-.62,5-1,7.45a19.3,19.3,0,0,0,3.43,13.85,14.08,14.08,0,0,1,2.42,3.88,23.5,23.5,0,0,1,.46,2.91,15.6,15.6,0,0,0,1.47,4.12,44.54,44.54,0,0,0,7.39,10.79,9.83,9.83,0,0,1,2,2.7c.81,1.89.22,4.08.47,6.13.6,4.78,5.43,7.68,8.18,11.64,1.57,2.25,2.48,4.9,4.06,7.13s4.22,4.09,6.91,3.55a73.33,73.33,0,0,1-.49-24c.91-6.18,2.81-12.6,7.45-16.8,2.9-2.62,7-4.55,8-8.32.51-1.89.15-4,.83-5.78.78-2.1,2.76-3.47,4.18-5.21,2.4-2.94,5.15-6.66,3-9.81-3.41-5.1-12.21-4.67-14.83-10.22-.64-1.37-.79-2.93-1.43-4.31a10.26,10.26,0,0,0-3.61-3.91,22.22,22.22,0,0,0-13.54-3.92c-3.64.16-8.1.89-10.21-2.08-.84-1.19-1.1-2.8-2.22-3.73-2.18-1.81-5.51.28-8.27-.35a8.4,8.4,0,0,1-2.95-1.56c-3.63-2.59-7.57-5.66-8.24-10.07-.2-1.31-.1-2.72-.78-3.85-1.35-2.27-5-2.22-6.38-4.45-1-1.6-.37-3.79.92-5.15A12.93,12.93,0,0,1,231.8,461c2.51-1,5.38-2,7.82-.82,4.14,1.95,4.83,9,9.38,9.42,3.32.32,5.6-3.5,5.79-6.83s-.79-6.75.07-10A18.06,18.06,0,0,1,258,447l8.21-11.39a12.79,12.79,0,0,1,3.46-3.64c1.79-1.07,4-1.19,5.92-1.92s3.83-2.61,3.31-4.63a4,4,0,0,0-.93-1.62c-2.82-3.17-7.94-3.46-10.72-6.67a14.3,14.3,0,0,0-1.53-1.76,7.89,7.89,0,0,0-3.81-1.27,33.3,33.3,0,0,1-19.89-11.62M359.54,451a13.27,13.27,0,0,1-5.45-1.87c-2-1.2-3.55-3.09-5.83-3.91-6.29-2.26-15.79.08-19.71,5.61-1.27,1.79-2.12,4-4,5.16-2.16,1.35-5.29,1-7,2.88a6.73,6.73,0,0,0-1.16,2.22,81.56,81.56,0,0,0-4.4,18.22,12.28,12.28,0,0,1-.83,3.71,10,10,0,0,1-1.69,2.36,55.8,55.8,0,0,1-5.53,5.45c-1.25,1.06-2.68,2.43-2.35,4,.27,1.3,1.59,2.06,2.81,2.59A34.53,34.53,0,0,0,323,500c2.68-.39,5.38-1.1,8.07-.7,2.52.37,4.85,1.7,7.39,1.83,2.8.15,5.48-1.17,8.27-1.4s6.23,1.44,6.08,4.24c-.08,1.46-1.12,2.68-1.63,4-1.23,3.38.89,7,.92,10.63,0,3.78-2.29,7.51-1.32,11.16.48,1.77,1.7,3.28,2.22,5.05,1,3.53-.87,7.19-1.32,10.84-.8,6.38,2.84,12.38,6.33,17.78.4.61.92,1.29,1.64,1.28a2.14,2.14,0,0,0,1.41-.88,42,42,0,0,0,6.13-8.87c.72-1.4,1.48-3,2.92-3.62,1.1-.5,2.37-.35,3.56-.59,2.93-.58,4.88-3.37,6.07-6.12s2-5.76,4-8c1.06-1.17,2.39-2.05,3.54-3.13,3.57-3.36,5-8.38,5.82-13.22s1.17-9.84,3.18-14.31a42.8,42.8,0,0,1,5.84-8.71c1.23-1.56,2.53-3.36,2.3-5.34-.35-3.12-4-4.46-6.56-6.26-5.81-4.05-7.27-12.26-12.64-16.86-1.59-1.37-3.5-2.39-4.82-4-1.62-2-2.16-4.62-3.37-6.88s-3.67-4.31-6.11-3.56a4.84,4.84,0,0,1-1.72.46c-1.9-.11-1.88-3.26-3.56-4.16S361.34,451.19,359.54,451Z"/></g></g><rect class="cls-8" x="21.87" y="659.38" width="610.72" height="103.79" transform="matrix(1, -0.03, 0.03, 1, -23.68, 11.38)"/><rect class="cls-9" x="67.9" y="568.89" width="507.58" height="86.26" transform="translate(-31.49 17.61) rotate(-2.99)"/><path class="cls-3" d="M295.35,420.39H334.9V552.15h-29V448.22H295.35Z"/><path class="cls-10" d="M80.6,647.66l14.92-40,.41,0,19,38.2-8.59.45L94.08,619.39l5.18-4L87.91,647.28Zm10.89-14.2,11.29-.59,2.93,6.1-16.19.85Z"/><path class="cls-10" d="M155.6,615.15a27.73,27.73,0,0,0-4.47-1.71,12.62,12.62,0,0,0-4.21-.55,6.37,6.37,0,0,0-3.72,1.17,3.31,3.31,0,0,0-1.23,3,3.22,3.22,0,0,0,1.17,2.32,10,10,0,0,0,2.8,1.73c1.14.48,2.32.92,3.53,1.3a29.42,29.42,0,0,1,3.32,1.28,12.48,12.48,0,0,1,3,2,9.3,9.3,0,0,1,2.21,3,12.13,12.13,0,0,1,1,4.53,10.1,10.1,0,0,1-1.2,5.39,10.8,10.8,0,0,1-4.14,4.19,15,15,0,0,1-7,1.88,23.31,23.31,0,0,1-4.39-.21,22.46,22.46,0,0,1-8.7-3.16l3-5.94a17.88,17.88,0,0,0,3,1.56,16.79,16.79,0,0,0,3.2,1,11.45,11.45,0,0,0,2.93.26,10,10,0,0,0,2.66-.52,5.12,5.12,0,0,0,2.19-1.42,3.57,3.57,0,0,0,.76-2.6,3.24,3.24,0,0,0-.85-2,7.74,7.74,0,0,0-2.08-1.58,16.59,16.59,0,0,0-2.81-1.19c-1.18-.38-2.4-.83-3.65-1.34a18.32,18.32,0,0,1-3.56-1.94,9.19,9.19,0,0,1-4-7.5,10.85,10.85,0,0,1,1.16-5.75,10.35,10.35,0,0,1,3.92-4,14.22,14.22,0,0,1,6.05-1.88,21.4,21.4,0,0,1,7.44.68,26.11,26.11,0,0,1,5.21,2.29Z"/><path class="cls-10" d="M176.23,605a18,18,0,0,1,8,1.15,11.25,11.25,0,0,1,5.13,4.14,13,13,0,0,1,2,6.63,16.21,16.21,0,0,1-.45,4.66,12.35,12.35,0,0,1-2,4.33,10.75,10.75,0,0,1-3.87,3.25,15,15,0,0,1-6.15,1.47l-5.31.28.62,11.91-7.41.38-2-37.6Zm2.24,18.43a6,6,0,0,0,2.78-.73,5,5,0,0,0,1.69-1.58,6.27,6.27,0,0,0,.82-1.91,6.12,6.12,0,0,0,.19-1.7,9.07,9.07,0,0,0-.26-1.5,6.09,6.09,0,0,0-.84-1.88,4.55,4.55,0,0,0-1.79-1.54,6.21,6.21,0,0,0-3.13-.5l-5.31.27.59,11.35Z"/><path class="cls-10" d="M191.22,641.88l14.92-40,.41,0,19,38.2-8.59.45L204.7,613.61l5.18-4-11.35,31.84Zm10.89-14.2,11.29-.59,2.93,6.1-16.19.84Z"/><path class="cls-10" d="M256.51,635.34a14.42,14.42,0,0,1-2.2,1.5,21.49,21.49,0,0,1-4,1.74,18.68,18.68,0,0,1-5.28.89,21.16,21.16,0,0,1-8-1.19,17.14,17.14,0,0,1-6.14-3.81,18.1,18.1,0,0,1-4-5.78,20.29,20.29,0,0,1-1.66-7.14,22.91,22.91,0,0,1,.9-7.93,18,18,0,0,1,3.4-6.38,16.83,16.83,0,0,1,5.59-4.34,18.93,18.93,0,0,1,7.39-1.82,20.18,20.18,0,0,1,6.74.67,23.19,23.19,0,0,1,4.87,2l-2.55,7.15A20.9,20.9,0,0,0,248,609a10.91,10.91,0,0,0-4.93-.79,9.71,9.71,0,0,0-4.07,1.11A10.62,10.62,0,0,0,235.7,612a12.16,12.16,0,0,0-2.18,3.93,12.68,12.68,0,0,0-.62,4.77,14.7,14.7,0,0,0,1,4.92,11,11,0,0,0,2.48,3.73,10,10,0,0,0,3.68,2.3,12.13,12.13,0,0,0,4.72.62,12.44,12.44,0,0,0,5.11-1.24,11.69,11.69,0,0,0,3.16-2.22Z"/><path class="cls-10" d="M262.12,600.46l25.65-1.34.37,7.15-18.24,1,.42,8,16.15-.85.37,7.16-16.15.84.43,8.13,19-1,.37,7.16-26.37,1.38Z"/><path class="cls-10" d="M310.2,598l25.34-1.33.38,7.15-9.15.48,1.59,30.45-7.41.39-1.59-30.45-8.79.46Z"/><path class="cls-10" d="M340.1,615.29a18.65,18.65,0,0,1,1.1-7.44,19.88,19.88,0,0,1,3.79-6.37,19.5,19.5,0,0,1,5.89-4.53,18.76,18.76,0,0,1,14.87-.78,20.15,20.15,0,0,1,6.37,3.89,19.85,19.85,0,0,1,4.52,5.94,19,19,0,0,1,.77,14.82,19,19,0,0,1-3.87,6.32,19.93,19.93,0,0,1-5.94,4.44,19.36,19.36,0,0,1-14.87.77A19.22,19.22,0,0,1,342,622.67,18.85,18.85,0,0,1,340.1,615.29Zm7.67-.4a12.28,12.28,0,0,0,1.14,4.63,12.09,12.09,0,0,0,2.7,3.7,11.54,11.54,0,0,0,3.87,2.38,11.42,11.42,0,0,0,4.67.68,10.82,10.82,0,0,0,7.89-3.92,12.37,12.37,0,0,0,2.2-4,12.5,12.5,0,0,0,.62-4.72,12.46,12.46,0,0,0-3.79-8.44,11.13,11.13,0,0,0-3.79-2.39,11.73,11.73,0,0,0-9.1.48,11.49,11.49,0,0,0-3.54,2.77,11.81,11.81,0,0,0-2.25,4A12.84,12.84,0,0,0,347.77,614.89Z"/><path class="cls-10" d="M412.59,592.59c3.92-.2,7.08.42,9.48,1.89a8,8,0,0,1,3.84,6.89,9.54,9.54,0,0,1-1.41,5.89A10.25,10.25,0,0,1,420,611a18.32,18.32,0,0,1-6.66,1.5L412,608.56a24.61,24.61,0,0,1,8.32.84,13.42,13.42,0,0,1,5.89,3.36,8.29,8.29,0,0,1,2.39,5.58,11.27,11.27,0,0,1-.82,5.25,9.42,9.42,0,0,1-2.79,3.58,12.91,12.91,0,0,1-4.11,2.11,20.36,20.36,0,0,1-4.83.84l-12.52.65-2-37.6Zm1.68,15.33a3.86,3.86,0,0,0,3.17-1.49,4.77,4.77,0,0,0,.89-3.07,3.41,3.41,0,0,0-1.45-2.85,5.81,5.81,0,0,0-3.55-.79l-4,.21.43,8.23Zm1.05,15.32a9.48,9.48,0,0,0,2.94-.59,4.29,4.29,0,0,0,2-1.49,3.64,3.64,0,0,0,.64-2.41,3.22,3.22,0,0,0-1.05-2.43,5.24,5.24,0,0,0-2.44-1.06,14,14,0,0,0-3.05-.17l-4.25.22.43,8.18Z"/><path class="cls-10" d="M442.5,614.8a6.19,6.19,0,0,0,1.25,3.37,8.34,8.34,0,0,0,3,2.51,7.64,7.64,0,0,0,3.92.82,8.14,8.14,0,0,0,4-1.24,8.05,8.05,0,0,0,2.7-2.81,6.16,6.16,0,0,0,.86-3.47L457,590.27l7.31-.38,1.25,23.86a13.37,13.37,0,0,1-1.66,7.44,14.2,14.2,0,0,1-5.26,5.29A16.45,16.45,0,0,1,451,628.7a16.22,16.22,0,0,1-7.73-1.41,14.46,14.46,0,0,1-5.76-4.72,13.33,13.33,0,0,1-2.42-7.23l-1.25-23.86,7.41-.39Z"/><path class="cls-10" d="M473.24,589.42l7.41-.39,2,37.61-7.41.38Z"/><path class="cls-10" d="M490.36,588.52l7.41-.38,1.59,30.45,17.68-.93.37,7.16-25.08,1.31Z"/><path class="cls-10" d="M525.08,624.42l-2-37.61,11.24-.59a24.88,24.88,0,0,1,9.75,1.18,17.36,17.36,0,0,1,6.65,4.16,18.37,18.37,0,0,1,3.88,6.1,22.89,22.89,0,0,1,1.49,6.94,18.25,18.25,0,0,1-1.12,7.62,17.4,17.4,0,0,1-3.81,5.94,18.13,18.13,0,0,1-5.84,3.94,20.8,20.8,0,0,1-7.19,1.63Zm7-7.54,4.4-.23a16.84,16.84,0,0,0,5.07-1,11.3,11.3,0,0,0,3.84-2.38,9.36,9.36,0,0,0,2.37-3.74,15.08,15.08,0,0,0-.88-11,10,10,0,0,0-3.15-3.44,10.89,10.89,0,0,0-3.7-1.58,12.28,12.28,0,0,0-3.14-.32l-6,.31Z"/><text class="cls-11" transform="translate(29.01 734.44) rotate(-1.92)">MEANINGFUL <tspan class="cls-12" x="294.18" y="0">P</tspan><tspan x="316.38" y="0">A</tspan><tspan class="cls-13" x="343.92" y="0">R</tspan><tspan x="370.47" y="0">TNERSHIPS</tspan></text><polygon class="cls-3" points="-3.77 -5.48 -3.77 100.46 946.16 -5.48 -3.77 -5.48"/><text class="cls-14" transform="translate(209.67 1199.14)">@CO<tspan class="cls-15" x="49.71" y="0">L</tspan><tspan x="61.54" y="0">OMBI</tspan><tspan class="cls-16" x="114.53" y="0">A</tspan><tspan x="126.65" y="0">TECHWEEK</tspan></text></g></svg>