<svg xmlns="http://www.w3.org/2000/svg" viewBox="0 0 667 1255"><defs><style>.cls-1{font-size:68px;font-family:JosefinSans-Bold, Josefin Sans;font-weight:700;}.cls-1,.cls-6{fill:#fff;}.cls-2{letter-spacing:-0.06em;}.cls-3{letter-spacing:-0.07em;}.cls-4{letter-spacing:-0.03em;}.cls-5{fill:#870094;}.cls-7{fill:#00f15d;}.cls-8{fill:none;stroke:#fff;stroke-miterlimit:10;stroke-width:2px;}</style></defs><title>Mujeres</title><g id="Layer_2" data-name="Layer 2"><rect x="-2.73" y="1.23" width="671.38" height="1255.03"/></g><g id="Layer_1" data-name="Layer 1"><text class="cls-1" transform="translate(77.89 456.44)">WH<tspan class="cls-2" x="124.58" y="0">A</tspan><tspan x="167.82" y="0">T DO </tspan><tspan class="cls-3" x="362.23" y="0">Y</tspan><tspan x="406.23" y="0">OU</tspan><tspan x="-44.91" y="74">IM</tspan><tspan class="cls-4" x="42.33" y="74">A</tspan><tspan x="87.62" y="74">GINE CTW IS?</tspan></text><rect class="cls-5" x="104.38" y="659.5" width="467.67" height="223.37"/><path class="cls-6" d="M377.16,795.52,375,790.25,368,773l-.72-1.78h-9.67a.41.41,0,0,0-.38.57l2,4.93,1.65,4.3-.06.09-6.26,15.57-8.65-25.46H334l18.31,47.33a1.18,1.18,0,0,0,2.17.07l11.59-24.88,9.85,24.57a1.19,1.19,0,0,0,2.21,0l17.51-47.06H384.57Z"/><polygon class="cls-6" points="404.36 799.83 424.1 799.83 424.1 789.88 404.36 789.88 404.36 781.27 426.66 781.27 426.66 771.33 398.21 771.33 394.11 782.54 394.11 818.5 427.54 818.5 427.54 808.56 404.36 808.56 404.36 799.83"/><polygon class="cls-6" points="440.54 799.41 460.28 799.41 460.28 789.47 440.54 789.47 440.54 780.86 462.84 780.86 462.84 770.92 430.28 770.92 430.28 818.1 463.71 818.1 463.71 808.15 440.54 808.15 440.54 799.41"/><polygon class="cls-6" points="184.43 782.72 195.18 782.72 195.18 819.95 207.03 819.95 207.03 782.72 218.21 782.72 218.21 771.18 184.43 771.18 184.43 782.72"/><polygon class="cls-6" points="230.19 808.27 230.09 808.27 230.09 807.19 230.19 807.19 230.19 801.27 249.93 801.27 249.93 789.73 230.19 789.73 230.19 782.72 252.49 782.72 252.49 771.18 220.51 771.18 220.51 785.24 217.52 785.27 218.34 819.6 218.34 819.95 253.37 819.95 253.37 808.41 230.19 808.41 230.19 808.27"/><polygon class="cls-6" points="325.64 789.73 307.88 789.73 307.88 771.18 296.03 771.18 296.03 819.95 307.88 819.95 307.88 801.27 325.64 801.27 325.64 819.95 337.49 819.95 337.49 786.72 331.37 771.18 325.64 771.18 325.64 789.73"/><path class="cls-6" d="M219.34,761.59,215,752.2l-1.22,1.16a11.46,11.46,0,0,1-3.12,1.94,12.07,12.07,0,0,1-5,.91,11.46,11.46,0,0,1-4.47-.82,9.43,9.43,0,0,1-3.33-2.32,10.49,10.49,0,0,1-2.15-3.66,14.54,14.54,0,0,1-.77-4.84,12.22,12.22,0,0,1,.83-4.54,11.86,11.86,0,0,1,2.28-3.65,10.18,10.18,0,0,1,3.28-2.39,9.18,9.18,0,0,1,3.85-.84,10.4,10.4,0,0,1,4.62,1,21.33,21.33,0,0,1,3.39,2l1.25,1,4.06-9.77-.85-.55a26.16,26.16,0,0,0-5.27-2.44,22.67,22.67,0,0,0-7.47-1.15,21.18,21.18,0,0,0-8.35,1.61,19.06,19.06,0,0,0-6.54,4.55,20.37,20.37,0,0,0-4.19,6.94,25.5,25.5,0,0,0-1.45,8.73,22.51,22.51,0,0,0,1.43,8,20.34,20.34,0,0,0,4.16,6.71,19.48,19.48,0,0,0,6.66,4.63,23.49,23.49,0,0,0,8.85,1.8H206a20.9,20.9,0,0,0,5.52-.7,23,23,0,0,0,4.52-1.71,15.88,15.88,0,0,0,2.62-1.6Z"/><polygon class="cls-6" points="291.26 756.22 272.59 756.22 272.59 724.05 262.35 724.05 262.35 766.19 291.26 766.19 291.26 756.22"/><path class="cls-6" d="M332.06,753.1a20.92,20.92,0,0,0,1.69-8.36,20.64,20.64,0,0,0-.69-5.34,12.21,12.21,0,0,0-.39-1.3h0c-.18-.55-.39-1.08-.61-1.61h0a22.32,22.32,0,0,0-4.68-6.88,22.64,22.64,0,0,0-6.87-4.7,21.08,21.08,0,0,0-16.68,0,21.73,21.73,0,0,0-6.83,4.71,22.23,22.23,0,0,0-4.59,6.88,20.88,20.88,0,0,0-1.66,8.24,22.1,22.1,0,0,0,.42,4.34c.08.39.18.78.28,1.17h0a1,1,0,0,0,0,.11s0,.07,0,.1h0c.1.33.28,1,.42,1.35h0c.14.43.3.86.48,1.27a21.58,21.58,0,0,0,4.6,6.83,21.37,21.37,0,0,0,6.83,4.6,21.59,21.59,0,0,0,16.65,0,22.06,22.06,0,0,0,6.88-4.59,21.51,21.51,0,0,0,4.69-6.83m-9.65-3.87a12,12,0,0,1-2.31,3.68,10.21,10.21,0,0,1-7.64,3.31,10.94,10.94,0,0,1-4.4-.87l-.34-.16-.67-.34a11.26,11.26,0,0,1-2.55-2,11.54,11.54,0,0,1-3.24-8.15,12.47,12.47,0,0,1,.83-4.58,11.38,11.38,0,0,1,2.34-3.68A10.95,10.95,0,0,1,316.57,734l.7.35a8.26,8.26,0,0,1,1.18.72,10.93,10.93,0,0,1,1.58,1.38,12.36,12.36,0,0,1,2.38,12.76"/><polygon class="cls-6" points="346.61 750.92 357.26 765.65 358.61 765.65 369.73 749.83 369.73 766.19 379.97 766.19 379.97 746.17 379.97 740.39 379.97 739.22 379.97 736.45 379.97 722.43 378.04 722.43 366.58 738.33 363.92 742.01 363.69 742.33 363.24 742.97 358.07 750.14 338.53 722.43 336.65 722.43 336.65 766.19 346.61 766.19 346.61 750.92"/><path class="cls-6" d="M412.37,759.3a13,13,0,0,0,1.29-6,10,10,0,0,0-2.51-6.82h0a13.59,13.59,0,0,0-3.08-2.56,11.85,11.85,0,0,0,1.66-1.81,11.3,11.3,0,0,0,2-6.84,9.63,9.63,0,0,0-4.19-8.47c-2.64-1.8-6.2-2.72-10.56-2.72H384.15v42.14h14.43a22.1,22.1,0,0,0,5.42-.66,14.78,14.78,0,0,0,4.86-2.18,11.31,11.31,0,0,0,3.51-4.05m-18-25.28h3a4.93,4.93,0,0,1,3,.78,2.35,2.35,0,0,1,.89,2.11,3.79,3.79,0,0,1-.84,2.44,3,3,0,0,1-2.48.95h-3.55Zm8.22,21h0a3.38,3.38,0,0,1-1.65,1.07,9,9,0,0,1-2.75.4h-3.82v-6.23h3.28a13.38,13.38,0,0,1,2.94.32,4.3,4.3,0,0,1,2,1,2.23,2.23,0,0,1,.58,1.73,2.64,2.64,0,0,1-.54,1.75"/><rect class="cls-6" x="416.47" y="724.05" width="10.24" height="42.14"/><path class="cls-6" d="M443.16,758.41h11.56l3.06,7.78h11.73l-19-43.7h-2l-19,43.7h10.36Zm5.94-14.26,2.07,5.27H446.9Z"/><path class="cls-6" d="M217.45,749.29a15.17,15.17,0,0,0,1.19,3.8,21.5,21.5,0,0,0,11.43,11.43,21.61,21.61,0,0,0,16.66,0,22.13,22.13,0,0,0,6.87-4.59,21.51,21.51,0,0,0,4.69-6.83,21.38,21.38,0,0,0,1-13.72l-.4-1.24h0q-.12-.37-.27-.75v0h0c-.11-.29-.23-.58-.35-.87h0a22.15,22.15,0,0,0-4.68-6.88,22.64,22.64,0,0,0-6.87-4.7,21.08,21.08,0,0,0-16.68,0,21.69,21.69,0,0,0-6.82,4.71,22.26,22.26,0,0,0-4.6,6.88,20.88,20.88,0,0,0-1.66,8.24,21.35,21.35,0,0,0,.48,4.55Zm15,5.24.05-.07,1.14.73Zm-4.12-14.37a11.38,11.38,0,0,1,2.34-3.68A10.95,10.95,0,0,1,242.8,734a6.77,6.77,0,0,1,.66.33h0a12.36,12.36,0,0,1,2.1,1.46c.24.22.47.44.69.67a12.36,12.36,0,0,1,2.38,12.76,11.92,11.92,0,0,1-2.3,3.68,10.25,10.25,0,0,1-7.64,3.31,11,11,0,0,1-4.41-.87,11.2,11.2,0,0,1-3.55-2.46,11.49,11.49,0,0,1-3.25-8.15,12.47,12.47,0,0,1,.83-4.58"/><path class="cls-6" d="M472.8,739.56l5.16-5c1-.89,1.68-1.64,2.22-2.22a7,7,0,0,0,1.16-1.59,3.49,3.49,0,0,0,.35-1.52,2.09,2.09,0,0,0-.51-1.51,2,2,0,0,0-1.52-.53,1.88,1.88,0,0,0-1.1.33,2.24,2.24,0,0,0-.77,1,4.59,4.59,0,0,0-.31,1.63h-4.74a8,8,0,0,1,1.05-4.11,6.14,6.14,0,0,1,2.59-2.34,8.14,8.14,0,0,1,3.53-.76,8,8,0,0,1,3.87.83A5.26,5.26,0,0,1,486,726a6.55,6.55,0,0,1,.71,3,7.18,7.18,0,0,1-.38,2.37,8,8,0,0,1-1.32,2.23,27,27,0,0,1-2.62,2.75L479.46,739H487v4.19H472.8Z"/><path class="cls-6" d="M488.35,733.16a19.37,19.37,0,0,1,.42-4.19,9.32,9.32,0,0,1,1.36-3.25,6.12,6.12,0,0,1,2.47-2.08,8.6,8.6,0,0,1,3.74-.73,8.48,8.48,0,0,1,3.72.73,6.36,6.36,0,0,1,2.48,2.08A9.13,9.13,0,0,1,503.9,729a18.74,18.74,0,0,1,.43,4.19,19,19,0,0,1-.43,4.22,9.16,9.16,0,0,1-1.36,3.24,6.25,6.25,0,0,1-2.48,2.07,8.63,8.63,0,0,1-3.72.71,8.76,8.76,0,0,1-3.74-.71,6,6,0,0,1-2.47-2.07,9.34,9.34,0,0,1-1.36-3.24,19.59,19.59,0,0,1-.42-4.22m11,0c0-.79,0-1.54-.08-2.26a7.89,7.89,0,0,0-.38-1.9,3,3,0,0,0-.89-1.32,3,3,0,0,0-3.28,0,3,3,0,0,0-.89,1.32,7.43,7.43,0,0,0-.38,1.9c-.06.72-.08,1.47-.08,2.26s0,1.59.08,2.31a7.18,7.18,0,0,0,.38,1.89,2.85,2.85,0,0,0,.89,1.29,3,3,0,0,0,3.28,0,2.85,2.85,0,0,0,.89-1.29,7.61,7.61,0,0,0,.38-1.89c.05-.72.08-1.49.08-2.31"/><path class="cls-6" d="M472.8,762.54l5.16-5c1-.9,1.68-1.64,2.22-2.23a7,7,0,0,0,1.16-1.59,3.49,3.49,0,0,0,.35-1.52,2.09,2.09,0,0,0-.51-1.51,2,2,0,0,0-1.52-.53,1.88,1.88,0,0,0-1.1.33,2.27,2.27,0,0,0-.77,1,4.57,4.57,0,0,0-.31,1.62h-4.74a8,8,0,0,1,1.05-4.11,6.14,6.14,0,0,1,2.59-2.34,8.28,8.28,0,0,1,3.53-.76,7.87,7.87,0,0,1,3.87.84,5.21,5.21,0,0,1,2.2,2.21,6.48,6.48,0,0,1,.71,3,7.18,7.18,0,0,1-.38,2.37,8.22,8.22,0,0,1-1.32,2.24,27.06,27.06,0,0,1-2.62,2.74l-2.91,2.7H487v4.19H472.8Z"/><path class="cls-6" d="M497.3,762.34h-9.4v-3.93l8.86-12.32h5.45v12.06h2.37v4.19h-2.37v3.85H497.3Zm.37-4.19v-6.46l-4.61,6.46Z"/><path class="cls-6" d="M288,804.73a12.92,12.92,0,0,1-3.55,2.19,13.52,13.52,0,0,1-5.64,1.05,13.07,13.07,0,0,1-5.08-.94,10.82,10.82,0,0,1-3.78-2.63,11.92,11.92,0,0,1-2.44-4.16,16.6,16.6,0,0,1-.88-5.52,13.82,13.82,0,0,1,.95-5.17,13.41,13.41,0,0,1,2.59-4.16,11.49,11.49,0,0,1,3.73-2.71,10.43,10.43,0,0,1,4.35-.95,11.76,11.76,0,0,1,5.25,1.11,24.75,24.75,0,0,1,3.89,2.31l1.67,1.26,4.89-11.74-1.15-.73a30,30,0,0,0-6.14-2.85,26.4,26.4,0,0,0-8.72-1.34,24.78,24.78,0,0,0-9.75,1.88,22.14,22.14,0,0,0-7.64,5.32,23.61,23.61,0,0,0-4.89,8.1A29.45,29.45,0,0,0,254,795.22a26.49,26.49,0,0,0,1.66,9.38,23.9,23.9,0,0,0,4.86,7.84,22.83,22.83,0,0,0,7.79,5.41,27.65,27.65,0,0,0,10.32,2.1h.52a24.14,24.14,0,0,0,6.43-.81,27.05,27.05,0,0,0,5.29-2,18.28,18.28,0,0,0,3.06-1.88l.95-.79-5.21-11.3Z"/><polygon class="cls-6" points="505.91 771.36 491.57 771.36 477.79 786.93 477.79 771.36 466.73 771.36 466.73 817.65 477.79 817.65 477.79 800.36 478.67 799.48 491.8 817.65 505.65 817.65 486.62 792.31 505.91 771.36"/><polygon class="cls-7" points="591.21 643.31 492.37 643.31 591.21 751.69 591.21 643.31"/><polygon class="cls-8" points="571.6 662.02 497.37 684.94 552.49 721.61 571.6 662.02"/><polygon class="cls-7" points="91.45 899.68 190.28 899.68 91.45 791.3 91.45 899.68"/><polygon class="cls-8" points="111.05 880.97 185.29 858.05 130.17 821.38 111.05 880.97"/><polygon class="cls-5" points="668.55 -3.73 467.16 -3.73 668.55 59.07 668.55 -3.73"/><polygon class="cls-5" points="85.31 -3.52 1.03 249 1.03 -3.09 85.31 -3.52"/><polygon class="cls-7" points="113.62 28.31 113.62 114.45 190.91 94.63 113.62 28.31"/><polygon class="cls-7" points="628.23 102.21 534.12 128.91 581.18 175.89 628.23 102.21"/><polygon class="cls-8" points="43.17 70.27 75.59 207.03 159.34 70.27 43.17 70.27"/><polygon class="cls-8" points="599.07 27.67 487.95 84.58 599.07 122.1 599.07 27.67"/><polygon class="cls-5" points="668.57 1252.6 455.18 1252.6 668.57 1183.75 668.57 1252.6"/><polygon class="cls-5" points="-5.24 980.43 -5.24 1254.91 67.24 1254.49 -5.24 980.43"/></g></svg>