<svg xmlns="http://www.w3.org/2000/svg" xmlns:xlink="http://www.w3.org/1999/xlink" viewBox="0 0 667 1255"><defs><style>.cls-1{isolation:isolate;}.cls-2{opacity:0.5;mix-blend-mode:screen;fill:url(#Degradado_sin_nombre_89);}.cls-3{fill:#870094;}.cls-4{fill:#00f15d;}.cls-5{font-size:81.18px;}.cls-10,.cls-13,.cls-5,.cls-7{font-family:JosefinSans-Bold, Josefin Sans;font-weight:700;}.cls-10,.cls-13,.cls-6{fill:#fff;}.cls-7{font-size:50.11px;}.cls-8{letter-spacing:-0.03em;}.cls-9{opacity:0.55;}.cls-10{font-size:27.92px;}.cls-11{letter-spacing:-0.02em;}.cls-12{letter-spacing:-0.06em;}.cls-13{font-size:59.92px;}.cls-14{letter-spacing:-0.02em;}.cls-15{letter-spacing:-0.07em;}.cls-16{letter-spacing:-0.06em;}.cls-17{letter-spacing:-0.01em;}</style><linearGradient id="Degradado_sin_nombre_89" x1="353.12" y1="651.16" x2="353.12" y2="1043.58" gradientUnits="userSpaceOnUse"><stop offset="0" stop-color="#d337af"/><stop offset="1" stop-color="#a2229d" stop-opacity="0"/></linearGradient></defs><title>Mujeres</title><g class="cls-1"><g id="Layer_2" data-name="Layer 2"><rect x="-1.98" y="0.52" width="671.38" height="1258.97"/></g><g id="Layer_1" data-name="Layer 1"><polygon class="cls-2" points="435.44 699.97 353.12 617.65 270.79 699.97 316.5 699.97 316.5 1108.16 389.74 1108.16 389.74 699.97 435.44 699.97"/><polygon class="cls-3" points="64.95 1259.95 604.87 1259.95 604.87 1114.46 64.87 1114.46 64.95 1259.95"/><polygon class="cls-3" points="-204.35 1258.73 875.5 1258.73 875.5 1206.57 -204.5 1206.57 -204.35 1258.73"/><path class="cls-4" d="M484.56,265q10.29-10.46,19.75-20.16t17-18.75a98.54,98.54,0,0,0,12-17.51,35.53,35.53,0,0,0,4.4-16.42,15.52,15.52,0,0,0-1.25-6.31,13.87,13.87,0,0,0-3.48-4.81,15.85,15.85,0,0,0-5.31-3.07,20.67,20.67,0,0,0-6.89-1.08,19.92,19.92,0,0,0-6.8,1.08,14.62,14.62,0,0,0-5,2.91,13.61,13.61,0,0,0-3.07,4,9.89,9.89,0,0,0-1.08,4.48,23.45,23.45,0,0,0,1.75,9.37,24.31,24.31,0,0,0,4.72,7.22l-14.76,13.44a20.08,20.08,0,0,1-8.22-7.8A45.87,45.87,0,0,1,483.15,200a37.82,37.82,0,0,1-1.74-10,32.9,32.9,0,0,1,5.06-17.42A38.43,38.43,0,0,1,501.24,159q9.7-5.3,23.64-5.31a37.58,37.58,0,0,1,19.91,5.15A36.83,36.83,0,0,1,558,172.31a35.77,35.77,0,0,1,4.73,17.84,45.56,45.56,0,0,1-2.32,14.43A67.94,67.94,0,0,1,554,218.27a131.89,131.89,0,0,1-9.21,13.27q-5.14,6.57-10.62,13.36l-10.95-3.15H564V265Z"/><rect class="cls-4" x="210.75" y="1084.81" width="284.74" height="81.8"/><text class="cls-5" transform="translate(217.15 1157.62)">LEVEL</text><rect class="cls-6" x="164.19" y="1013.35" width="377.86" height="64.21"/><text class="cls-7" transform="translate(178.59 1066.12)"><tspan class="cls-8">T</tspan><tspan x="28.11" y="0">O THE NEXT</tspan></text><g class="cls-9"><text class="cls-10" transform="translate(161.47 1231.1)">@CO<tspan class="cls-11" x="72.87" y="0">L</tspan><tspan x="90.21" y="0">OMBI</tspan><tspan class="cls-12" x="167.89" y="0">A</tspan><tspan x="185.65" y="0">TECHWEEK</tspan></text></g><rect class="cls-4" x="79.08" y="278.73" width="321.7" height="85.56"/><path d="M96.45,297.26H130.1v9.49H118v40.43h-9.84V306.75H96.45Z"/><path d="M134.85,322.29a24.48,24.48,0,0,1,2-9.77,26.3,26.3,0,0,1,5.46-8.18,25.86,25.86,0,0,1,8.1-5.59,24.92,24.92,0,0,1,19.75,0,26.64,26.64,0,0,1,8.17,5.59,26.25,26.25,0,0,1,5.56,8.18,24.16,24.16,0,0,1,2,9.77,24.47,24.47,0,0,1-2,9.9,25.38,25.38,0,0,1-5.56,8.11,26.25,26.25,0,0,1-8.17,5.46,25.73,25.73,0,0,1-19.75,0,25.53,25.53,0,0,1-13.56-13.57A24.79,24.79,0,0,1,134.85,322.29Zm10.17,0a16.24,16.24,0,0,0,1.19,6.21,15.87,15.87,0,0,0,3.33,5.08,15.09,15.09,0,0,0,11.09,4.65,14.38,14.38,0,0,0,10.72-4.65,16.34,16.34,0,0,0,3.18-5.08,17.26,17.26,0,0,0,0-12.52,16.4,16.4,0,0,0-3.26-5.12,14.71,14.71,0,0,0-4.85-3.43,15.54,15.54,0,0,0-12.07,0,15.19,15.19,0,0,0-4.89,3.43,15.68,15.68,0,0,0-3.25,5.12A17,17,0,0,0,145,322.29Z"/><path d="M214.36,297.26H248v9.49H235.86v40.43H226V306.75H214.36Z"/><path d="M247.8,347.18l22.52-51.89h.55l22.52,51.89H282l-14.38-36.49,7.12-4.89L257.5,347.18Zm15.4-18h15l3.46,8.28h-21.5Z"/><path d="M310.62,315l-.27,2.51,1.49-1.9,16.28-18.38h12.75l-20.62,22.38,20.69,27.54H328.46l-15.4-21.3-2.44,2.45v18.85h-10V297.26h10Z"/><path d="M348.4,297.26h34.06v9.49H358.24V317.4h21.44v9.5H358.24v10.79h25.17v9.49h-35Z"/><text class="cls-13" transform="translate(79.08 197.76)">FIND<tspan x="0" y="65.05">INVES</tspan><tspan class="cls-14" x="190.12" y="65.05">T</tspan><tspan x="223.73" y="65.05">ORS</tspan></text><text class="cls-13" transform="translate(413 357.1)"><tspan class="cls-15">Y</tspan><tspan x="38.77" y="0">OUR </tspan><tspan x="-90.66" y="65.05">S</tspan><tspan class="cls-16" x="-55.72" y="65.05">T</tspan><tspan x="-24.21" y="65.05">A</tspan><tspan class="cls-17" x="17.5" y="65.05">R</tspan><tspan x="57.7" y="65.05">TUP</tspan></text></g></g></svg>