<svg width="83" height="23" viewBox="0 0 83 23" fill="none" xmlns="http://www.w3.org/2000/svg">
<path d="M4.0891 5.03428V8.05073C4.0891 8.4007 4.07799 8.7479 4.05577 9.09232C4.0391 9.43674 4.01688 9.70338 3.9891 9.89226H4.0891C4.33352 9.50895 4.66683 9.18398 5.08902 8.91733C5.51121 8.64513 6.0584 8.50903 6.73057 8.50903C7.77494 8.50903 8.6221 8.91733 9.27205 9.73394C9.922 10.5505 10.247 11.7477 10.247 13.3253C10.247 14.3864 10.097 15.278 9.79701 16.0001C9.49703 16.7168 9.07762 17.2584 8.53877 17.625C7.99992 17.9861 7.37497 18.1667 6.66391 18.1667C5.98062 18.1667 5.44178 18.0444 5.04736 17.8C4.65294 17.5556 4.33352 17.2806 4.0891 16.9751H3.91411L3.48914 18H1.54762V5.03428H4.0891ZM5.91396 10.5422C5.46955 10.5422 5.1168 10.6339 4.85571 10.8172C4.59461 11.0005 4.40296 11.2755 4.28075 11.6421C4.16409 12.0088 4.10021 12.4726 4.0891 13.0337V13.3087C4.0891 14.2142 4.22242 14.9086 4.48907 15.3919C4.75571 15.8696 5.24179 16.1085 5.94729 16.1085C6.46948 16.1085 6.88334 15.8668 7.18887 15.3835C7.49996 14.9002 7.6555 14.2031 7.6555 13.292C7.6555 12.381 7.49996 11.6949 7.18887 11.2338C6.87778 10.7728 6.45281 10.5422 5.91396 10.5422ZM11.0136 8.68401H13.7967L15.5549 13.9253C15.6105 14.092 15.6577 14.2614 15.6966 14.4336C15.7355 14.6058 15.7688 14.7836 15.7966 14.9669C15.8244 15.1502 15.8466 15.3419 15.8632 15.5418H15.9132C15.9466 15.2419 15.991 14.9613 16.0466 14.7002C16.1077 14.4391 16.1827 14.1808 16.2715 13.9253L17.9964 8.68401H20.7212L16.7798 19.1916C16.541 19.836 16.2299 20.372 15.8466 20.7998C15.4633 21.2331 15.0216 21.5581 14.5217 21.7747C14.0273 21.9914 13.4829 22.0997 12.8885 22.0997C12.5996 22.0997 12.3496 22.083 12.1385 22.0497C11.9274 22.0219 11.7469 21.9914 11.5969 21.958V19.9415C11.7135 19.9693 11.8608 19.9943 12.0385 20.0165C12.2163 20.0387 12.4024 20.0499 12.5968 20.0499C12.9523 20.0499 13.2579 19.9749 13.5134 19.8249C13.7689 19.6749 13.9828 19.4721 14.155 19.2166C14.3272 18.9666 14.4633 18.6916 14.5633 18.3916L14.7133 17.9333L11.0136 8.68401Z" fill="#7D0991"/>
<g clip-path="url(#clip0_27_8006)">
<path d="M58.6687 15.5405V15.5836C58.6687 16.3797 57.3147 16.5929 55.7452 16.5929C54.1757 16.5929 52.8444 16.3774 52.8444 15.5836V15.5405C52.8444 14.8102 53.5747 14.5516 53.5747 13.4993V10.104C53.5747 8.64339 53.1437 8.10587 52.393 8.10587C51.7489 8.10587 51.2318 8.6638 51.2114 9.977V13.5015C51.2114 14.5539 51.9417 14.8125 51.9417 15.5428V15.5859C51.9417 16.3819 50.5877 16.5951 49.0182 16.5951C47.4487 16.5951 46.1174 16.3797 46.1174 15.5859V15.5428C46.1174 14.8125 46.8477 14.5539 46.8477 13.5015V10.3852C46.8477 9.35329 46.1174 9.09473 46.1174 8.36442V8.32133C46.1174 7.52525 46.9565 6.96731 48.6099 6.3436C50.0275 5.82876 50.9301 5.80608 50.9301 7.03082V7.67494C51.4246 6.68608 52.4769 6.04195 53.6178 5.99886C56.5413 5.86958 57.9384 7.7838 57.9384 10.1698V13.5015C57.9384 14.5539 58.6687 14.8125 58.6687 15.5428V15.5405Z" fill="#7D0991"/>
<path d="M72.2973 14.7217V14.7648C72.2973 15.5609 71.7167 16.3343 70.1699 16.6564C68.9021 16.9354 67.7839 16.5271 67.5254 15.5382C67.4823 15.4316 67.4619 15.3455 67.4392 15.2797C66.7293 16.1393 65.7631 16.7403 64.4726 16.7403C61.506 16.7403 59.4217 14.6764 59.4217 11.3673C59.4217 8.05825 61.658 5.99434 64.6019 5.99434C65.5477 5.99434 66.278 6.2529 66.8382 6.66114V4.64032C66.8382 3.60837 66.1283 3.34981 66.1283 2.6195V2.57641C66.1283 1.78033 66.9674 1.22239 68.6208 0.598682C70.018 0.0838374 71.2223 0.0407448 71.2223 1.2859V12.6805C71.2223 13.7329 72.2973 13.9914 72.2973 14.7217ZM66.9448 11.3696C66.9448 9.45763 66.4934 7.88815 65.4615 7.88815C64.5384 7.88815 63.9351 9.0698 63.9351 11.3696C63.9351 13.6694 64.5361 14.8737 65.4615 14.8737C66.4934 14.8737 66.9448 13.3042 66.9448 11.3696Z" fill="#7D0991"/>
<path d="M82.5283 13.2815C83.431 13.8621 81.9908 16.8491 78.4005 16.7425C75.477 16.679 72.9413 14.9372 72.9413 11.3695C72.9413 8.38254 75.1345 6.03966 78.1215 5.99656C81.0655 5.95347 82.8073 7.86769 82.9797 9.77965C83.109 11.306 82.6576 11.6712 81.6688 11.6712H77.1327C77.5409 13.8213 79.9065 14.0141 81.3467 13.4765C81.8615 13.2611 82.2063 13.0683 82.5283 13.2838V13.2815ZM76.9399 10.1221H78.8949C79.3032 10.1221 79.5391 9.97243 79.5822 9.5846C79.6683 8.8747 79.6683 7.56378 78.4436 7.56378C77.4978 7.56378 76.9399 8.48914 76.9399 10.1221Z" fill="#7D0991"/>
<path d="M36.605 17.1984C33.3391 17.1984 30.5698 15.5677 29.3541 12.778C29.6784 13.6127 30.123 14.4609 30.6968 15.3091C31.9261 17.1258 35.1898 21.1924 36.2966 22.5601C36.4894 22.7982 36.85 22.7982 37.0405 22.5601C38.145 21.1924 41.411 17.1258 42.6403 15.3091C43.2209 14.4496 43.67 13.5922 43.9943 12.7485C42.7809 15.5541 39.9776 17.1984 36.6028 17.1984H36.605Z" fill="#7D0991"/>
<path fill-rule="evenodd" clip-rule="evenodd" d="M36.6096 16.7471C41.1457 16.7471 44.6498 13.7805 44.6498 9.00856H44.652C44.652 4.23661 41.1706 1.27002 36.6118 1.27002C32.0531 1.27002 28.7009 4.23661 28.7009 9.00856C28.7009 13.7805 32.0735 16.7471 36.6096 16.7471ZM36.0969 3.225C37.8592 3.07531 39.1905 5.33201 39.4921 8.74994C39.7938 12.1883 38.8684 14.64 37.1062 14.7897C35.3439 14.9621 34.0126 12.7031 33.7109 9.26479C33.4093 5.82644 34.3346 3.3747 36.0969 3.225Z" fill="#7D0991"/>
</g>
<defs>
<clipPath id="clip0_27_8006">
<rect width="54.2991" height="22.4785" fill="white" transform="translate(28.7009 0.260742)"/>
</clipPath>
</defs>
</svg>
