<svg width="179" height="35" viewBox="0 0 179 35" fill="none" xmlns="http://www.w3.org/2000/svg">
<path d="M19.1667 10.834H13.3334C12.8914 10.834 12.4675 11.0096 12.1549 11.3221C11.8423 11.6347 11.6667 12.0586 11.6667 12.5007V24.1673C11.6667 24.6093 11.8423 25.0333 12.1549 25.3458C12.4675 25.6584 12.8914 25.834 13.3334 25.834H25.0001C25.4421 25.834 25.866 25.6584 26.1786 25.3458C26.4912 25.0333 26.6667 24.6093 26.6667 24.1673V18.334" stroke="#3C0560" stroke-width="1.5" stroke-linecap="round" stroke-linejoin="round"/>
<path d="M25.4167 9.58417C25.7483 9.25265 26.1979 9.06641 26.6667 9.06641C27.1356 9.06641 27.5852 9.25265 27.9167 9.58417C28.2483 9.91569 28.4345 10.3653 28.4345 10.8342C28.4345 11.303 28.2483 11.7527 27.9167 12.0842L20.0001 20.0008L16.6667 20.8342L17.5001 17.5008L25.4167 9.58417Z" stroke="#3C0560" stroke-width="1.5" stroke-linecap="round" stroke-linejoin="round"/>
<path d="M42.584 12.316V14.14H38.344V16.94H42.104V18.716H38.344V21.676H42.584V23.5H36.104V12.316H42.584ZM44.0436 19.036C44.0436 16.268 45.8356 14.492 48.1076 14.492C49.2756 14.492 50.3956 15.036 51.0036 15.868V11.66H53.2756V23.5H51.0036V22.188C50.4756 23.004 49.4836 23.644 48.0916 23.644C45.8356 23.644 44.0436 21.804 44.0436 19.036ZM51.0196 19.068C51.0196 17.388 49.8996 16.46 48.6676 16.46C47.4676 16.46 46.3316 17.356 46.3316 19.036C46.3316 20.716 47.4676 21.676 48.6676 21.676C49.8996 21.676 51.0196 20.748 51.0196 19.068ZM55.4634 23.5V14.636H57.7034V23.5H55.4634ZM56.5994 13.58C55.7994 13.58 55.2234 13.004 55.2234 12.268C55.2234 11.532 55.7994 10.956 56.5994 10.956C57.3834 10.956 57.9754 11.532 57.9754 12.268C57.9754 13.004 57.3834 13.58 56.5994 13.58ZM60.2685 20.748V16.476H59.2125V14.636H60.2685V12.444H62.5245V14.636H64.5085V16.476H62.5245V20.764C62.5245 21.356 62.7645 21.612 63.4685 21.612H64.5085V23.5H63.1005C61.4045 23.5 60.2685 22.78 60.2685 20.748Z" fill="#3C0560"/>
</svg>
