<svg xmlns="http://www.w3.org/2000/svg" width="159" height="48" viewBox="0 0 159 48" fill="none">
  <g clip-path="url(#clip0_71_734)">
    <path d="M95.3198 35.9728L94.265 33.3805L90.8025 24.8727L90.4441 23.9932H85.6629C85.5165 23.9932 85.4166 24.1402 85.4713 24.275L86.4495 26.7011L87.2648 28.8182L87.232 28.8632L84.1389 36.5269L79.8583 23.9932H73.9622L83.0198 47.2907C83.2059 47.7685 83.8762 47.7903 84.0937 47.3261L89.8258 35.081L94.6987 47.1709C94.897 47.6637 95.6016 47.6555 95.7876 47.1572L104.451 23.9918H98.9861L95.3184 35.9714L95.3198 35.9728Z" fill="#070707"/>
    <path d="M108.774 38.0939H118.539V33.2008H108.774V28.9611H119.806V24.0667H105.733L103.703 29.5847V47.2892H120.238V42.3948H108.774V38.0939Z" fill="#070707"/>
    <path d="M126.666 37.8925H136.43V32.998H126.666V28.7597H137.697V23.8652H121.594V47.0865H138.13V42.1933H126.666V37.8925Z" fill="#070707"/>
    <path d="M0 29.6732H5.31477V48H11.1754V29.6732H16.7063V23.9932H0V29.6732Z" fill="#52EF70"/>
    <path d="M22.6311 42.2532H22.5819V41.7181H22.6311V38.806H32.3961V33.1273H22.6311V29.6732H33.6629V23.9932H17.8471V30.9149L16.3669 30.9326L16.7705 47.8298V48H34.0952V42.3213H22.6311V42.2532Z" fill="#52EF70"/>
    <path d="M69.8404 33.1273H61.055V23.9932H55.1943V48H61.055V38.806H69.8404V48H75.701V31.646L72.6736 23.9932H69.8404V33.1273Z" fill="#52EF70"/>
    <path d="M17.2658 19.273L15.1221 14.6521L14.5188 15.2253C14.1768 15.5493 13.6584 15.8693 12.9757 16.1756C12.3095 16.4751 11.4846 16.6276 10.5256 16.6276C9.70203 16.6276 8.95782 16.4915 8.31348 16.2219C7.67598 15.9551 7.12193 15.5711 6.66638 15.0783C6.20809 14.5827 5.84967 13.9768 5.60206 13.2771C5.35034 12.5664 5.22175 11.7658 5.22175 10.8972C5.22175 10.0912 5.35992 9.33832 5.63352 8.66031C5.90713 7.97821 6.28607 7.37372 6.75941 6.86317C7.22727 6.35806 7.77311 5.96187 8.38325 5.68549C8.98792 5.41184 9.62816 5.27297 10.2862 5.27297C11.1494 5.27297 11.9182 5.43635 12.5708 5.75629C13.2726 6.1021 13.8376 6.4343 14.2493 6.74608L14.8636 7.21034L16.8746 2.40027L16.4532 2.13206C15.7761 1.70183 14.8992 1.29748 13.8471 0.929878C12.7732 0.555474 11.5297 0.364868 10.1535 0.364868C8.65686 0.364868 7.26695 0.630355 6.02341 1.15588C4.77577 1.68277 3.68819 2.43703 2.79077 3.39686C1.89471 4.35398 1.19702 5.50306 0.718213 6.81279C0.240772 8.11708 0 9.5616 0 11.1123C0 12.5065 0.238036 13.838 0.705901 15.0687C1.17513 16.3036 1.86735 17.4146 2.76204 18.3717C3.66083 19.3315 4.7703 20.098 6.05898 20.6508C7.34082 21.2008 8.81281 21.499 10.4353 21.5357C10.5078 21.5357 10.5803 21.5371 10.6528 21.5371C11.6364 21.5371 12.553 21.4227 13.3806 21.1954C14.2534 20.9557 15.0072 20.6712 15.6201 20.3526C16.2426 20.0286 16.6653 19.7713 16.9143 19.5657L17.2658 19.2743V19.273Z" fill="#070707"/>
    <path d="M52.8385 16.6304H43.6016V0.796509H38.5386V21.5371H52.8385V16.6304Z" fill="#070707"/>
    <path d="M73.0128 15.096C73.5682 13.8216 73.85 12.437 73.85 10.9816C73.85 10.0803 73.7364 9.2008 73.5107 8.35261C73.5107 8.35261 73.3684 7.79168 73.3178 7.71408C73.2275 7.44587 73.1263 7.18174 73.0128 6.9217C72.4601 5.65417 71.6817 4.51462 70.698 3.53709C69.7158 2.55955 68.5735 1.78079 67.2999 1.22259C66.018 0.660298 64.635 0.37439 63.189 0.37439C61.743 0.37439 60.3325 0.660298 59.0507 1.22259C57.7771 1.78215 56.6416 2.56227 55.6758 3.54117C54.7113 4.52007 53.9466 5.65826 53.4035 6.92579C52.8576 8.1974 52.5813 9.56295 52.5813 10.9843C52.5813 11.7168 52.6524 12.4288 52.792 13.1191C52.8316 13.3138 52.8768 13.5058 52.9274 13.6964C52.9274 13.6964 52.9329 13.7182 52.9425 13.7536C52.9466 13.7699 52.9507 13.7862 52.9548 13.8026C52.9999 13.9619 53.0902 14.2723 53.16 14.467C53.16 14.4683 53.1613 14.4697 53.1627 14.4724C53.2366 14.6834 53.3146 14.8931 53.4021 15.0987C53.9452 16.3676 54.7113 17.499 55.6771 18.4602C56.6443 19.4227 57.7798 20.1851 59.0548 20.7256C60.3325 21.2689 61.7238 21.5439 63.1862 21.5439C64.6486 21.5439 66.0126 21.2689 67.2903 20.7256C68.5639 20.1851 69.7076 19.4241 70.6912 18.4642C71.6762 17.503 72.456 16.3717 73.01 15.1014M68.2383 13.1967C67.9634 13.8788 67.5803 14.4888 67.0988 15.0075C66.6227 15.5207 66.0563 15.9251 65.4134 16.2097C64.7718 16.4928 64.0672 16.6372 63.3203 16.6372C62.535 16.6372 61.8018 16.4928 61.141 16.2083C61.0849 16.1838 61.0289 16.1566 60.9728 16.1307C60.903 16.0967 60.7771 16.0327 60.6417 15.9619C60.1779 15.7032 59.7552 15.3805 59.3818 14.9966C58.8756 14.4779 58.4775 13.8706 58.197 13.1913C57.9166 12.5146 57.7757 11.7726 57.7757 10.9871C57.7757 10.2015 57.9139 9.42136 58.1875 8.73382C58.4597 8.04764 58.8496 7.4377 59.3462 6.91898C59.84 6.40298 60.4228 5.99726 61.0767 5.71135C61.7279 5.42681 62.4461 5.28249 63.2122 5.28249C63.9783 5.28249 64.6979 5.42681 65.3477 5.71135C65.4681 5.76309 65.583 5.82163 65.6979 5.88154C65.6979 5.88154 65.8676 5.9537 66.2807 6.23824C66.5611 6.43702 66.8224 6.66302 67.0618 6.91625C67.5516 7.43634 67.9429 8.049 68.226 8.73926C68.5065 9.42681 68.6488 10.1824 68.6488 10.9871C68.6488 11.7917 68.5106 12.5187 68.237 13.1967" fill="#070707"/>
    <path d="M80.2143 14.0245L85.4798 21.2716H86.1474L91.6482 13.4881V21.5371H96.7113V11.6828V8.84139V8.26412V6.89857V0H95.7564L90.0873 7.82573L88.774 9.63785L88.6618 9.79442L88.4348 10.1076L85.8793 13.6365L76.2156 0H75.2839V21.5371H80.2143V14.0245Z" fill="#070707"/>
    <path d="M112.733 18.1471C113.159 17.3302 113.375 16.3322 113.375 15.1777C113.375 13.883 112.956 12.7543 112.132 11.8231C111.707 11.3452 111.199 10.9218 110.61 10.561C110.917 10.2941 111.19 9.99596 111.431 9.67193C112.101 8.7652 112.441 7.63245 112.441 6.30502C112.441 4.4752 111.743 3.07289 110.365 2.13483C109.059 1.24716 107.302 0.796509 105.144 0.796509H98.781V21.5371H105.918C106.836 21.5371 107.737 21.4282 108.598 21.2131C109.483 20.9939 110.29 20.6318 110.997 20.1403C111.724 19.6352 112.308 18.964 112.733 18.1471ZM103.844 5.70189H105.33C105.959 5.70189 106.456 5.83259 106.802 6.08854C106.991 6.22878 107.242 6.49018 107.242 7.12735C107.242 7.57799 107.105 7.97146 106.824 8.3268C106.576 8.63994 106.175 8.79106 105.597 8.79106H103.844V5.70053V5.70189ZM107.91 16.0382C107.714 16.2778 107.447 16.4493 107.093 16.5651C106.692 16.6958 106.234 16.7611 105.731 16.7611H103.844V13.6978H105.464C105.969 13.6978 106.458 13.7509 106.919 13.8557C107.322 13.947 107.649 14.1049 107.891 14.3254C108.084 14.5024 108.178 14.7802 108.178 15.1764C108.178 15.5358 108.09 15.8176 107.911 16.0382" fill="#070707"/>
    <path d="M119.825 0.796509H114.762V21.5371H119.825V0.796509Z" fill="#070707"/>
    <path d="M127.964 17.7114H133.682L135.196 21.5371H140.996L131.615 0.0272217H130.619L121.239 21.5371H126.362L127.962 17.7114H127.964ZM130.901 10.6903L131.928 13.2839H129.816L130.901 10.6903Z" fill="#070707"/>
    <path d="M16.3329 13.2213C16.3329 13.2213 16.482 14.1852 16.9212 15.0919C17.4643 16.3608 18.2304 17.4922 19.1975 18.4534C20.1647 19.4159 21.3002 20.1784 22.5752 20.7175C23.8529 21.2607 25.2428 21.5358 26.7066 21.5358C28.1704 21.5358 29.533 21.2607 30.8121 20.7175C32.0843 20.177 33.2294 19.4173 34.2116 18.4575C35.1966 17.4963 35.9764 16.3649 36.5304 15.096C37.0858 13.8217 37.3676 12.4371 37.3676 10.9816C37.3676 10.0776 37.2527 9.19539 37.027 8.34447L36.83 7.73454L36.8423 7.73181C36.8013 7.60792 36.7561 7.48675 36.7096 7.36422L36.7055 7.34924C36.6508 7.20492 36.5933 7.06197 36.5318 6.91901C35.9791 5.65149 35.2007 4.51193 34.2171 3.5344C33.2348 2.55686 32.0912 1.7781 30.8189 1.2199C29.5371 0.657613 28.154 0.371704 26.708 0.371704C25.262 0.371704 23.8516 0.656251 22.5697 1.2199C21.2961 1.77946 20.1606 2.55959 19.1948 3.53848C18.2304 4.51738 17.4656 5.65557 16.9225 6.9231C16.3767 8.19471 16.1003 9.56027 16.1003 10.9816C16.1003 11.7509 16.1811 12.4983 16.3343 13.2213H16.3329ZM23.7435 15.7999L23.7695 15.7631L24.3331 16.1239L23.7421 15.7985L23.7435 15.7999ZM21.7092 8.72841C21.9815 8.04223 22.3714 7.43229 22.868 6.91357C23.3618 6.39757 23.9446 5.99185 24.5985 5.70594C25.2497 5.4214 25.9679 5.27708 26.734 5.27708C27.5001 5.27708 28.2197 5.4214 28.8695 5.70458C28.9817 5.7536 29.0897 5.80805 29.1978 5.86387L29.2005 5.85979C29.4208 5.97688 29.782 6.19744 30.2416 6.58137C30.3593 6.68484 30.4742 6.79376 30.5822 6.90948C31.072 7.42957 31.4633 8.04359 31.7464 8.73249C32.0269 9.42004 32.1692 10.1757 32.1692 10.9803C32.1692 11.7849 32.031 12.5119 31.7574 13.1899C31.4824 13.872 31.0994 14.482 30.6178 15.0007C30.1417 15.514 29.5754 15.9183 28.9324 16.2029C28.2908 16.4861 27.5863 16.6304 26.8393 16.6304C26.0541 16.6304 25.3208 16.4861 24.6614 16.2015C23.9979 15.9156 23.407 15.5072 22.9035 14.9912C22.3974 14.4725 21.9993 13.8652 21.7188 13.1859C21.4384 12.5092 21.2961 11.7672 21.2961 10.9816C21.2961 10.1961 21.4343 9.41595 21.7079 8.72841" fill="#070707"/>
    <path d="M142.623 8.43018L145.179 5.97137C145.644 5.52889 146.009 5.16401 146.274 4.87674C146.54 4.58947 146.73 4.32807 146.848 4.09254C146.964 3.857 147.021 3.60785 147.021 3.34373C147.021 3.02378 146.938 2.776 146.77 2.60173C146.603 2.42746 146.351 2.34033 146.016 2.34033C145.811 2.34033 145.63 2.39478 145.471 2.50234C145.313 2.61126 145.187 2.77055 145.094 2.98294C145.001 3.19533 144.949 3.46082 144.941 3.78076H142.594C142.614 2.95163 142.785 2.27906 143.112 1.76034C143.437 1.24298 143.865 0.859046 144.396 0.608535C144.927 0.359386 145.508 0.234131 146.142 0.234131C146.924 0.234131 147.562 0.370278 148.054 0.643933C148.548 0.917589 148.911 1.27974 149.143 1.73175C149.376 2.18376 149.492 2.67797 149.492 3.21575C149.492 3.63917 149.429 4.02855 149.303 4.38117C149.177 4.73379 148.961 5.10139 148.655 5.4826C148.348 5.86381 147.915 6.31446 147.357 6.83182L145.919 8.15925H149.66V10.2219H142.623V8.42746V8.43018Z" fill="#070707"/>
    <path d="M150.314 5.27972C150.314 4.52683 150.384 3.83929 150.524 3.21709C150.663 2.5949 150.886 2.06393 151.194 1.62009C151.502 1.17761 151.908 0.835882 152.416 0.596263C152.923 0.356645 153.54 0.235474 154.265 0.235474C154.99 0.235474 155.606 0.355283 156.108 0.596263C156.61 0.835882 157.018 1.17761 157.33 1.62009C157.642 2.06257 157.867 2.5949 158.007 3.21709C158.146 3.83929 158.216 4.52683 158.216 5.27972C158.216 6.03262 158.146 6.73513 158.007 7.35596C157.867 7.97679 157.642 8.51049 157.33 8.95297C157.018 9.39545 156.61 9.73582 156.108 9.96999C155.606 10.2055 154.992 10.3226 154.265 10.3226C153.539 10.3226 152.923 10.2055 152.416 9.96999C151.908 9.73445 151.501 9.39545 151.194 8.95297C150.888 8.51049 150.663 7.97816 150.524 7.35596C150.384 6.73377 150.314 6.04215 150.314 5.27972ZM155.745 5.27972C155.745 4.89306 155.732 4.52411 155.703 4.17012C155.676 3.81614 155.613 3.50436 155.514 3.23071C155.417 2.95705 155.269 2.74058 155.075 2.58129C154.88 2.42063 154.61 2.34031 154.265 2.34031C153.921 2.34031 153.651 2.42063 153.455 2.58129C153.26 2.74194 153.113 2.95841 153.015 3.23071C152.918 3.50436 152.855 3.8175 152.826 4.17012C152.799 4.52274 152.784 4.89306 152.784 5.27972C152.784 5.68544 152.797 6.06393 152.826 6.41655C152.855 6.76917 152.918 7.08095 153.015 7.34916C153.112 7.61737 153.258 7.82976 153.455 7.98496C153.651 8.14017 153.921 8.21778 154.265 8.21778C154.61 8.21778 154.88 8.14017 155.075 7.98496C155.271 7.82976 155.417 7.61737 155.514 7.34916C155.613 7.08095 155.676 6.76917 155.703 6.41655C155.73 6.06257 155.745 5.68408 155.745 5.27972Z" fill="#070707"/>
    <path d="M142.623 19.7427L145.179 17.2839C145.644 16.8414 146.009 16.4765 146.274 16.1892C146.54 15.902 146.73 15.6406 146.848 15.405C146.964 15.1695 147.021 14.9204 147.021 14.6562C147.021 14.3363 146.938 14.0885 146.77 13.9142C146.603 13.74 146.351 13.6528 146.016 13.6528C145.811 13.6528 145.63 13.7073 145.471 13.8148C145.313 13.9238 145.187 14.0831 145.094 14.2954C145.001 14.5078 144.949 14.7733 144.941 15.0933H142.594C142.614 14.2641 142.785 13.5916 143.112 13.0728C143.437 12.5555 143.865 12.1715 144.396 11.921C144.927 11.6719 145.508 11.5466 146.142 11.5466C146.924 11.5466 147.562 11.6828 148.054 11.9564C148.548 12.2301 148.911 12.5922 149.143 13.0442C149.376 13.4963 149.492 13.9905 149.492 14.5283C149.492 14.9517 149.429 15.341 149.303 15.6937C149.177 16.0463 148.961 16.4139 148.655 16.7951C148.348 17.1763 147.915 17.627 147.357 18.1443L145.919 19.4718H149.66V21.5344H142.623V19.74V19.7427Z" fill="#070707"/>
    <path d="M154.74 19.6433H150.092V17.7073L154.476 11.646H157.171V17.5793H158.343V19.6419H157.171V21.5357H154.741V19.6419L154.74 19.6433ZM154.922 17.5806V14.4016L152.646 17.5806H154.922Z" fill="#070707"/>
    <path d="M51.215 40.5078C50.8292 40.8754 50.2382 41.2376 49.4612 41.5875C48.7047 41.9278 47.7662 42.1007 46.6718 42.1007C45.7333 42.1007 44.8865 41.9455 44.156 41.6406C43.4337 41.3383 42.8044 40.9026 42.2886 40.3444C41.7688 39.7822 41.3625 39.0946 41.0807 38.2982C40.7934 37.4867 40.647 36.5732 40.647 35.582C40.647 34.663 40.8043 33.8067 41.1149 33.0347C41.4268 32.2587 41.8577 31.5711 42.3967 30.9884C42.9275 30.4152 43.5486 29.9646 44.2394 29.6528C44.9248 29.3438 45.6485 29.1858 46.3941 29.1858C47.3763 29.1858 48.2491 29.3696 48.9892 29.7331C49.7936 30.1293 50.4407 30.5105 50.914 30.8673L51.7389 31.4908L54.1562 25.71L53.5899 25.3506C52.8005 24.8496 51.7786 24.3771 50.5515 23.9483C49.297 23.5112 47.8469 23.2893 46.2408 23.2893C44.4939 23.2893 42.8714 23.5997 41.4186 24.2137C39.9616 24.8291 38.6894 25.71 37.6401 26.8332C36.5935 27.951 35.7782 29.2934 35.2187 30.8223C34.6633 32.3376 34.3828 34.0218 34.3828 35.8284C34.3828 37.4554 34.6605 39.0088 35.2064 40.4438C35.7549 41.887 36.5634 43.1845 37.6086 44.3009C38.6579 45.4227 39.9548 46.3186 41.461 46.9639C42.9576 47.6052 44.6745 47.9537 46.5664 47.9973C46.6526 47.9986 46.7388 48 46.8236 48C47.9714 48 49.0412 47.8652 50.0057 47.5997C51.0221 47.3206 51.9017 46.9884 52.6186 46.6154C53.3559 46.2314 53.8375 45.9374 54.1343 45.6909L54.6049 45.3002L52.0249 39.7372L51.215 40.5065V40.5078Z" fill="#52EF70"/>
    <path d="M159 24.0844H151.908L145.088 31.7481V24.0844H139.619V46.8672H145.088V38.3566L145.525 37.9223L152.022 46.8672H158.873L149.458 34.3934L159 24.0844Z" fill="#070707"/>
  </g>
  <defs>
    <clipPath id="clip0_71_734">
      <rect width="159" height="48" fill="white"/>
    </clipPath>
  </defs>
</svg>