<svg width="55" height="23" viewBox="0 0 55 23" fill="none" xmlns="http://www.w3.org/2000/svg">
<g clip-path="url(#clip0_49_33996)">
<path d="M29.9676 15.2797V15.3228C29.9676 16.1189 28.6136 16.3321 27.0441 16.3321C25.4746 16.3321 24.1433 16.1167 24.1433 15.3228V15.2797C24.1433 14.5494 24.8736 14.2909 24.8736 13.2385V9.84327C24.8736 8.38265 24.4426 7.84512 23.6919 7.84512C23.0478 7.84512 22.5307 8.40306 22.5103 9.71625V13.2408C22.5103 14.2932 23.2406 14.5517 23.2406 15.282V15.3251C23.2406 16.1212 21.8866 16.3344 20.3171 16.3344C18.7476 16.3344 17.4163 16.1189 17.4163 15.3251V15.282C17.4163 14.5517 18.1466 14.2932 18.1466 13.2408V10.1245C18.1466 9.09254 17.4163 8.83399 17.4163 8.10368V8.06059C17.4163 7.26451 18.2554 6.70657 19.9088 6.08286C21.3264 5.56802 22.229 5.54534 22.229 6.77008V7.4142C22.7235 6.42533 23.7758 5.78121 24.9167 5.73812C27.8402 5.60884 29.2373 7.52306 29.2373 9.90904V13.2408C29.2373 14.2932 29.9676 14.5517 29.9676 15.282V15.2797Z" fill="#BDBDBD"/>
<path d="M43.5963 14.461V14.5041C43.5963 15.3002 43.0157 16.0736 41.4689 16.3956C40.2011 16.6746 39.083 16.2664 38.8244 15.2775C38.7813 15.1709 38.7609 15.0847 38.7382 15.0189C38.0283 15.8785 37.0621 16.4796 35.7716 16.4796C32.805 16.4796 30.7207 14.4156 30.7207 11.1066C30.7207 7.79751 32.957 5.7336 35.9009 5.7336C36.8467 5.7336 37.577 5.99215 38.1372 6.4004V4.37958C38.1372 3.34762 37.4273 3.08907 37.4273 2.35876V2.31567C37.4273 1.51959 38.2665 0.96165 39.9199 0.33794C41.317 -0.176905 42.5213 -0.219997 42.5213 1.02515V12.4198C42.5213 13.4721 43.5963 13.7307 43.5963 14.461ZM38.2438 11.1088C38.2438 9.19689 37.7924 7.62741 36.7605 7.62741C35.8374 7.62741 35.2341 8.80906 35.2341 11.1088C35.2341 13.4086 35.8351 14.613 36.7605 14.613C37.7924 14.613 38.2438 13.0435 38.2438 11.1088Z" fill="#BDBDBD"/>
<path d="M53.8272 13.0209C54.7299 13.6015 53.2897 16.5885 49.6994 16.4819C46.7759 16.4184 44.2402 14.6765 44.2402 11.1089C44.2402 8.12192 46.4334 5.77904 49.4204 5.73594C52.3643 5.69285 54.1062 7.60707 54.2786 9.51903C54.4078 11.0454 53.9565 11.4106 52.9676 11.4106H48.4316C48.8398 13.5607 51.2054 13.7535 52.6456 13.2159C53.1604 13.0005 53.5052 12.8077 53.8272 13.0231V13.0209ZM48.2388 9.8615H50.1938C50.6021 9.8615 50.838 9.71181 50.881 9.32398C50.9672 8.61408 50.9672 7.30316 49.7425 7.30316C48.7967 7.30316 48.2388 8.22852 48.2388 9.8615Z" fill="#BDBDBD"/>
<path d="M7.90399 16.9377C4.63802 16.9377 1.86874 15.307 0.653076 12.5173C0.977405 13.3519 1.42194 14.2002 1.99575 15.0484C3.22503 16.8651 6.48873 20.9317 7.59554 22.2993C7.78832 22.5375 8.14894 22.5375 8.33945 22.2993C9.44399 20.9317 12.71 16.8651 13.9392 15.0484C14.5199 14.1888 14.9689 13.3315 15.2933 12.4878C14.0799 15.2934 11.2766 16.9377 7.90172 16.9377H7.90399Z" fill="#BDBDBD"/>
<path fill-rule="evenodd" clip-rule="evenodd" d="M7.90864 16.4865C12.4447 16.4865 15.9488 13.5199 15.9488 8.74794H15.9511C15.9511 3.97599 12.4697 1.0094 7.91091 1.0094C3.35216 1.0094 0 3.97599 0 8.74794C0 13.5199 3.37257 16.4865 7.90864 16.4865ZM7.39596 2.96448C9.15822 2.81479 10.4896 5.07148 10.7912 8.48942C11.0929 11.9278 10.1675 14.3795 8.40523 14.5292C6.64297 14.7016 5.31163 12.4426 5.00998 9.00426C4.70833 5.56592 5.63369 3.11417 7.39596 2.96448Z" fill="#BDBDBD"/>
</g>
<defs>
<clipPath id="clip0_49_33996">
<rect width="54.2991" height="22.4785" fill="white"/>
</clipPath>
</defs>
</svg>
